<?xml version="1.0" encoding="UTF-8" standalone="no"?>
<!DOCTYPE svg PUBLIC "-//W3C//DTD SVG 20010904//EN"
              "http://www.w3.org/TR/2001/REC-SVG-20010904/DTD/svg10.dtd">

<svg xmlns="http://www.w3.org/2000/svg"
     width="5.29167in" height="7.875in"
     viewBox="0 0 381 567">
     <text x="190" y="45" fill="white"
       text-anchor="middle"
       font-family="sans-serif">STAGE</text>
  <path id="Path"
        fill="none" stroke="white" stroke-width="1"
        d="M 42.67,8.00
           C 42.67,8.12 341.48,8.00 341.48,8.00
             341.48,8.00 362.00,555.00 362.00,555.00
             362.00,555.00 17.00,555.00 17.00,555.00
             17.00,555.00 42.67,8.00 42.67,8.00M 47.75,15.51
           C 47.75,15.51 334.97,15.52 334.97,15.52
             334.97,15.52 354.50,484.32 354.50,484.32
             354.50,484.32 349.50,484.49 349.50,484.49
             349.50,484.49 351.88,546.50 351.88,546.50
             351.88,546.50 28.75,546.50 28.75,546.50
             28.75,546.50 29.84,484.24 29.84,484.24
             29.84,484.24 25.50,484.11 25.50,484.11
             25.50,484.11 47.75,15.51 47.75,15.51M 350.75,397.12
           C 350.75,397.12 305.75,397.08 305.75,397.08
             305.75,397.08 304.89,399.13 304.89,399.13
             304.89,399.13 75.31,399.08 75.31,399.08
             75.31,399.08 75.15,397.39 75.15,397.39
             75.15,397.39 29.60,397.39 29.60,397.39M 312.75,328.50
           C 312.75,328.50 313.03,175.00 313.03,175.00
             313.03,175.00 298.00,60.13 188.50,61.40
             77.25,65.49 67.00,173.47 67.00,173.47
             67.00,173.47 67.00,328.50 67.00,328.50
             67.00,328.50 312.75,328.50 312.75,328.50M 16.00,341.02
           C 16.00,341.02 42.50,341.02 42.50,341.02M 16.50,382.68
           C 16.50,382.68 42.50,382.71 42.50,382.71M 76.50,413.25
           C 76.50,413.25 304.50,413.25 304.50,413.25M 76.50,427.62
           C 76.50,427.62 304.50,427.62 304.50,427.62M 304.50,442.88
           C 304.50,442.88 76.50,442.88 76.50,442.88M 76.50,457.75
           C 76.50,457.75 304.50,457.75 304.50,457.75M 304.50,472.38
           C 304.50,472.38 76.50,472.38 76.50,472.38M 76.50,485.93
           C 76.50,485.93 304.50,485.88 304.50,485.88M 76.50,516.12
           C 76.50,516.12 304.50,516.12 304.50,516.12M 76.50,500.88
           C 76.50,500.88 304.50,500.88 304.50,500.88M 85.00,309.50
           C 85.00,309.50 84.62,179.88 84.62,179.88
             84.62,179.88 91.50,83.00 190.50,79.62
             287.25,83.25 294.00,175.00 294.00,175.00
             294.00,175.00 294.00,309.50 294.00,309.50
             294.00,309.50 85.00,309.50 85.00,309.50M 104.50,289.50
           C 104.50,289.50 104.50,181.25 104.50,181.25
             104.50,181.25 111.25,99.00 191.00,99.00
             270.75,99.00 276.00,180.25 276.00,180.25
             276.00,180.25 276.00,289.50 276.00,289.50
             276.00,289.50 104.50,289.50 104.50,289.50M 125.00,271.00
           C 125.00,271.00 125.00,178.50 125.00,178.50
             125.00,178.50 134.25,115.75 192.00,119.00
             248.25,121.47 255.00,175.96 255.00,175.96
             255.00,175.96 255.00,271.00 255.00,271.00
             255.00,271.00 125.00,271.00 125.00,271.00" />
</svg>
